<svg width="24" height="27" viewBox="0 0 24 27" fill="none" xmlns="http://www.w3.org/2000/svg">
    <defs>
        <clipPath id="DownloadPath">
            <path d="M1.33333 27C1.36041 27 1.3873 26.9992 1.41398 26.9976C1.44246 26.9992 1.47116 27 1.50004 27H22.5C22.5289 27 22.5576 26.9992 22.5861 26.9976C22.6128 26.9992 22.6396 27 22.6667 27C23.4031 27 24 26.403 24 25.6667V22.3333C24 21.597 23.4031 21 22.6667 21C21.9303 21 21.3334 21.597 21.3334 22.3333L21.3334 24H2.66667L2.66667 22.3333C2.66667 21.597 2.06971 21 1.33333 21C0.596954 21 3.16255e-07 21.597 2.59031e-07 22.3333L0 25.6667C-5.72218e-08 26.403 0.596954 27 1.33333 27Z" fill="black"/>
            <path d="M10.6248 1.37512C10.6248 0.615663 11.2405 0 12 0C12.7594 0 13.3751 0.615665 13.3751 1.37513V17.6615L19.7635 11.494C20.2752 11.0001 21.1046 11.0001 21.6163 11.494C22.1279 11.9879 22.1279 12.7887 21.6163 13.2826L12.9703 21.6295C12.7034 21.8872 12.35 22.0104 12.0003 21.9993C11.6505 22.0106 11.2968 21.8874 11.0297 21.6295L2.38371 13.2827C1.8721 12.7888 1.8721 11.988 2.38371 11.4941C2.89532 11.0001 3.72481 11.0001 4.23642 11.4941L10.6248 17.6614V1.37512Z" fill="black"/>
        </clipPath>
    </defs>
</svg>
