<svg width="97" height="98" viewBox="0 0 97 98" fill="none" xmlns="http://www.w3.org/2000/svg">
<path d="M19.5299 42.9188C21.4569 33.6437 27.6277 25.9219 35.9203 21.9844C36.6998 23.0562 41.9828 30.4719 46.8978 39.2656C33.0406 42.9844 20.8507 42.9406 19.5299 42.9188ZM68.1165 26.6875C60.8415 20.1688 50.9467 17.6969 41.5714 19.9937C42.3942 21.1094 47.7638 28.5031 52.6138 37.4937C63.1366 33.4906 67.5752 27.4531 68.1165 26.6875ZM30.3342 72.625C39.1031 79.5375 50.5353 80.6531 60.062 76.5625C59.629 73.9375 57.8969 64.7937 53.7397 53.9C41.8096 58.0125 33.4304 66.2375 30.3342 72.625ZM51.7261 48.9562C50.99 47.25 50.1672 45.5656 49.3228 43.8813C34.5563 48.3438 20.2228 48.1688 18.9237 48.125C18.9237 48.4313 18.902 48.7375 18.902 49.0438C18.902 56.7219 21.7817 63.7219 26.5018 69.0375C31.3085 60.7469 41.0301 51.9969 51.7261 48.9562ZM59.2826 52.5219C63.1583 63.2625 64.7172 72.0125 65.0203 73.8281C71.6674 69.3 76.3875 62.1031 77.7083 53.7906C76.7123 53.4625 68.5495 51.0125 59.2826 52.5219ZM54.8873 41.9344C55.9266 44.0781 56.6844 45.8281 57.4855 47.7969C67.3371 46.55 77.1237 48.5406 78.098 48.7594C78.033 41.6937 75.5431 35.2188 71.4076 30.1438C70.7797 30.9969 65.8214 37.4062 54.8873 41.9344ZM97 10.5V87.5C97 93.2969 92.3449 98 86.6071 98H10.3929C4.65513 98 0 93.2969 0 87.5V10.5C0 4.70312 4.65513 0 10.3929 0H86.6071C92.3449 0 97 4.70312 97 10.5ZM83.1429 49C83.1429 29.7063 67.5969 14 48.5 14C29.4031 14 13.8571 29.7063 13.8571 49C13.8571 68.2937 29.4031 84 48.5 84C67.5969 84 83.1429 68.2937 83.1429 49Z" fill="black"/>
</svg>
